<svg width="361" height="428" viewBox="0 0 361 428" fill="none" xmlns="http://www.w3.org/2000/svg">
<path d="M338.832 88.265C372.617 140.201 361.829 218.054 338.131 281.593C314.531 345.046 278.124 394.139 230.42 415.224C182.821 436.305 124.024 429.345 79.0465 403.829C33.9659 378.304 2.70055 334.249 0.181331 292.282C-2.44136 250.444 23.7811 210.794 53.229 159.865C82.6769 108.936 115.553 46.7113 171.124 28.5594C226.79 10.4075 305.048 36.4409 338.832 88.265Z" fill="#F2F2F2"/>
<path fill-rule="evenodd" clip-rule="evenodd" d="M156.666 89.718L155.317 82.9026C154.935 80.997 153.814 79.3205 152.198 78.2409C150.582 77.1614 148.604 76.767 146.697 77.1444L119.557 82.5427C117.651 82.9239 115.975 84.0456 114.895 85.6615C113.816 87.2775 113.422 89.2557 113.799 91.1621L133.593 190.523C133.78 191.467 134.152 192.365 134.687 193.165C135.222 193.966 135.909 194.653 136.71 195.188C137.51 195.722 138.408 196.094 139.352 196.282C140.296 196.469 141.268 196.469 142.212 196.281L160.099 192.718C162.469 192.111 165.587 191.193 165.587 191.193L156.666 89.718Z" fill="#6BD5E1"/>
<path fill-rule="evenodd" clip-rule="evenodd" d="M229.772 405.039L231.954 411.886L250.169 407.702L248.626 399.51L229.772 405.039Z" fill="#E49D75"/>
<path fill-rule="evenodd" clip-rule="evenodd" d="M116.389 345.455L109.709 348.645L118.733 364.705L126.579 359.594L116.389 345.455Z" fill="#E49D75"/>
<path fill-rule="evenodd" clip-rule="evenodd" d="M157.713 177.27C157.713 177.27 176.018 273.581 181.304 286.586C174.291 292.281 116.029 345.577 116.029 345.577L125.926 360.089L210.275 311.796L192.933 167.458L157.713 177.27Z" fill="#56CAD8"/>
<path fill-rule="evenodd" clip-rule="evenodd" d="M169.568 180.905C173.868 191.643 229.723 405.188 229.723 405.188L249.27 400.032L232.085 165.011C232.085 165.011 165.272 170.167 169.568 180.905Z" fill="#6BD5E1"/>
<path fill-rule="evenodd" clip-rule="evenodd" d="M179.523 70.8824C222.683 61.4758 237.978 154.269 235.054 165.83C232.13 177.392 163.891 188.773 158.888 181.773C153.886 174.773 133.885 80.8288 179.523 70.8824Z" fill="#FFD98E"/>
<path fill-rule="evenodd" clip-rule="evenodd" d="M167.89 47.6515C170.733 54.9798 171.808 65.9744 172.501 76.5866C176.316 79.9066 187.603 78.7999 189.182 76.8385C187.918 73.4916 188.233 63.1312 188.93 59.9102C189.627 56.6892 166.302 43.5623 167.89 47.6515Z" fill="#D18C65"/>
<path fill-rule="evenodd" clip-rule="evenodd" d="M237.753 62.8522L251.433 10.2409L257.551 11.8289L243.871 64.4627L237.753 62.8522Z" fill="#DFDFDF"/>
<path d="M241.474 57.8948L244.978 58.7946" stroke="white" stroke-width="1.01" stroke-linecap="square" stroke-linejoin="round"/>
<path d="M243.272 50.976L246.777 51.8757" stroke="white" stroke-width="1.01" stroke-linecap="square" stroke-linejoin="round"/>
<path d="M245.068 44.0572L248.577 44.9569" stroke="white" stroke-width="1.01" stroke-linecap="square" stroke-linejoin="round"/>
<path d="M246.867 37.1382L250.376 38.0379" stroke="white" stroke-width="1.01" stroke-linecap="square" stroke-linejoin="round"/>
<path d="M248.667 30.2193L252.171 31.1191" stroke="white" stroke-width="1.01" stroke-linecap="square" stroke-linejoin="round"/>
<path d="M250.466 23.3005L253.97 24.2003" stroke="white" stroke-width="1.01" stroke-linecap="square" stroke-linejoin="round"/>
<path d="M252.266 16.3817L255.77 17.2814" stroke="white" stroke-width="1.01" stroke-linecap="square" stroke-linejoin="round"/>
<path fill-rule="evenodd" clip-rule="evenodd" d="M258.19 42.901C261.843 41.6144 264.327 44.9929 265.325 47.998C266.927 52.8295 265.865 57.2381 264.327 57.8949C263.472 58.2752 262.513 58.3554 261.607 58.1227C260.7 57.89 259.899 57.3579 259.333 56.6128C259.225 57.9309 259.036 59.0286 256.634 60.0723C253.035 61.6333 249.058 56.9232 248.118 54.494C246.867 51.3 247.457 46.5314 250.142 45.3798C252.356 44.4306 253.867 45.1144 254.565 45.9871C255.55 44.4351 256.656 43.4409 258.19 42.901Z" fill="#56CAD8"/>
<path fill-rule="evenodd" clip-rule="evenodd" d="M255.864 33.1839C261.15 33.6337 257.178 41.9967 254.686 43.7781C252.922 42.2891 250.75 32.7475 255.864 33.1839Z" fill="#FD8369"/>
<path fill-rule="evenodd" clip-rule="evenodd" d="M160.499 131.893C160.121 139.842 158.002 161.156 173.954 164.845C189.128 168.358 239.004 134.547 247.961 132.531C256.917 130.516 257.066 133.701 263.566 131.263C276.383 126.449 273.913 121.168 272.901 115.747C267.476 117.51 190.329 136.441 187.724 137.124C186.613 134.657 186.011 131.989 185.956 129.283C185.956 129.283 160.876 123.944 160.499 131.893Z" fill="#E49D75"/>
<path fill-rule="evenodd" clip-rule="evenodd" d="M170.148 87.9501C191.634 86.9064 193.181 130.993 190.023 133.885C186.865 136.778 157.003 138.888 154.754 135.599C152.505 132.311 151.196 88.8723 170.148 87.9501Z" fill="#FFE4AD"/>
<path fill-rule="evenodd" clip-rule="evenodd" d="M216.106 113.786C211.022 115.063 207.77 119.544 208.841 123.791C209.911 128.037 214.896 130.462 219.984 129.162L275.398 115.216L271.529 99.84L216.106 113.786Z" fill="#FD8369"/>
<path fill-rule="evenodd" clip-rule="evenodd" d="M215.332 102.755L293.788 82.9206L296.487 93.6183L218.031 113.448L215.332 102.755Z" fill="#DFDFDF"/>
<path fill-rule="evenodd" clip-rule="evenodd" d="M213.33 84.4322L270.116 70.0771L274.642 87.9771L217.851 102.332L213.33 84.4322Z" fill="#56CAD8"/>
<path fill-rule="evenodd" clip-rule="evenodd" d="M194.148 77.9541L272.618 58.1198L275.317 68.8309L196.861 88.6608L194.148 77.9541Z" fill="#FD8369"/>
<path d="M217.365 115.351L220.177 126.688" stroke="#6BD5E1" stroke-width="1.36" stroke-linecap="square" stroke-linejoin="round"/>
<path fill-rule="evenodd" clip-rule="evenodd" d="M219.412 89.7091L235.436 85.6604L236.714 90.7123L220.69 94.7611L219.412 89.7091Z" fill="#DFDFDF"/>
<path d="M199.785 82.1378L232.13 73.8559" stroke="#FFD98E" stroke-width="2.42" stroke-linecap="round" stroke-linejoin="round"/>
<path fill-rule="evenodd" clip-rule="evenodd" d="M95.1289 355.982L120.834 403.573L128.081 399.749L120.006 364.66L109.767 348.501L95.1289 355.982Z" fill="#2B2B2B"/>
<path fill-rule="evenodd" clip-rule="evenodd" d="M234.218 427.658L287.472 418.211L286.123 410.114L250.26 406.744L231.712 411.391L234.218 427.658Z" fill="#2B2B2B"/>
<path fill-rule="evenodd" clip-rule="evenodd" d="M199.33 14.1998C197.301 3.15121 186.442 -1.59933 176.846 0.474531C160.161 4.07342 152.104 13.0706 142.139 14.7486C127.024 17.2769 112.948 11.5996 97.0812 15.7833C75.5778 21.4516 72.3793 36.8053 75.4879 50.5801C80.6658 73.3656 100.266 78.4715 114.963 76.3212C136.377 73.1721 136.741 58.0748 150.169 55.767C156.445 54.6918 160.516 56.0684 166.9 54.8673C173.283 53.6661 183.644 45.3887 186.694 42.2352C189.744 39.0816 200.536 20.7588 199.33 14.1998Z" fill="black"/>
<path fill-rule="evenodd" clip-rule="evenodd" d="M165.276 38.7263C163.026 25.3924 169.257 13.5655 179.194 12.3104C189.132 11.0553 199.02 20.8488 201.269 34.1917C203.518 47.5346 197.288 59.3524 187.35 60.6075C177.413 61.8626 167.525 52.0602 165.276 38.7263Z" fill="#E49D75"/>
<path fill-rule="evenodd" clip-rule="evenodd" d="M195.241 17.5468C196.883 26.2921 171.425 40.3772 163.418 42.1452C155.41 43.9132 152.36 27.3987 152.36 27.3987C152.36 27.3987 179.447 -4.32998 195.241 17.5468Z" fill="black"/>
<path fill-rule="evenodd" clip-rule="evenodd" d="M162.622 45.6991C162.621 44.7529 162.901 43.8277 163.426 43.0406C163.951 42.2536 164.698 41.6399 165.572 41.2774C166.446 40.9149 167.408 40.8199 168.336 41.0042C169.264 41.1886 170.116 41.6441 170.786 42.3132C171.455 42.9822 171.91 43.8347 172.094 44.7628C172.279 45.6908 172.184 46.6527 171.821 47.5267C171.459 48.4007 170.845 49.1475 170.058 49.6726C169.271 50.1977 168.346 50.4775 167.4 50.4766C166.133 50.4766 164.917 49.9733 164.021 49.0773C163.125 48.1814 162.622 46.9662 162.622 45.6991V45.6991Z" fill="#E49D75"/>
<path d="M153.854 85.6108C156.162 83.6891 158.894 82.3444 161.825 81.688" stroke="#6BD5E1" stroke-width="4" stroke-linecap="round" stroke-linejoin="round"/>
<path d="M161.844 81.688C175.942 78.5929 191.026 92.7096 195.529 113.223C197.329 121.352 197.171 129.265 195.471 136.049" stroke="#6BD5E1" stroke-width="4" stroke-linecap="round" stroke-linejoin="round"/>
</svg>
