<svg width="231" height="100" viewBox="0 0 231 100" fill="none" xmlns="http://www.w3.org/2000/svg">
<path d="M74.5557 31.1547C68.7589 27.7716 63.0552 24.1076 57.1121 20.9519C56.1553 20.3935 55.0807 20.0708 53.9761 20.0104C52.8715 19.95 51.7683 20.1535 50.7569 20.6042C46.6088 22.3871 42.4606 24.1076 38.3124 25.7658C37.0144 26.256 35.9012 27.1422 35.1288 28.3003C34.3564 29.4585 33.9634 30.8305 34.0047 32.2244V62.3247C33.9506 64.0127 34.3615 65.6829 35.1921 67.1507C36.0227 68.6185 37.2407 69.8268 38.7113 70.642L54.001 79.6949C55.1319 80.381 56.3987 80.8092 57.712 80.9493C59.0253 81.0895 60.3533 80.938 61.6021 80.5058C62.8509 80.0735 63.9902 79.3709 64.9396 78.4475C65.8891 77.5242 66.6255 76.4026 67.097 75.1618C67.3097 74.5868 67.5091 74.3862 68.1739 74.5199C69.3353 74.7617 70.5328 74.7698 71.6974 74.544C72.862 74.3181 73.9706 73.8626 74.9593 73.2038C75.948 72.545 76.7973 71.6959 77.4583 70.7054C78.1192 69.7149 78.5787 68.6027 78.8102 67.4328C78.9252 66.8648 78.9876 66.2873 78.9964 65.7078V38.9639C79.0423 37.3773 78.6521 35.8087 77.8685 34.4308C77.085 33.053 75.9387 31.9193 74.5557 31.1547ZM62.7893 58.6608V71.6048C62.843 72.4113 62.6679 73.2165 62.2842 73.9268C61.9005 74.637 61.3241 75.2229 60.6221 75.6164C59.9478 75.99 59.1827 76.1655 58.414 76.123C57.6453 76.0804 56.904 75.8215 56.2745 75.3757C51.4217 72.474 46.5822 69.5589 41.6496 66.7374C40.7657 66.298 40.0312 65.6048 39.539 64.7456C39.0467 63.8864 38.8189 62.8996 38.8841 61.9102C38.8841 53.4457 38.9772 44.9813 38.8841 36.5034C38.81 35.6937 38.9668 34.8795 39.3361 34.1562C39.7055 33.4328 40.2722 32.8303 40.9697 32.4192C41.6673 32.0081 42.4669 31.8053 43.2748 31.8348C44.0828 31.8642 44.8657 32.1246 45.5318 32.5855C50.4378 35.6476 55.4635 38.5226 60.4626 41.4511C61.2141 41.857 61.8347 42.4703 62.2516 43.2188C62.6685 43.9674 62.8642 44.82 62.8159 45.6766C62.776 49.9957 62.7893 54.3149 62.7893 58.6608ZM74.0505 65.6276C74.078 66.2397 73.9657 66.8501 73.7222 67.4119C73.4786 67.9736 73.1104 68.4718 72.6457 68.8681C72.181 69.2645 71.6322 69.5485 71.0414 69.6984C70.4506 69.8483 69.8336 69.86 69.2375 69.7327C67.908 69.5589 67.6953 69.238 67.6953 67.9543V45.4493C67.7512 43.7886 67.3469 42.145 66.5275 40.7022C65.7081 39.2594 64.5058 38.0742 63.0552 37.279C57.737 34.0698 52.2593 30.9006 46.7018 27.6378C48.8823 26.7286 50.9564 25.846 53.0304 24.9635C53.4266 24.8537 53.8415 24.8304 54.2473 24.8949C54.6532 24.9595 55.0406 25.1105 55.3837 25.3379C58.5871 26.9366 61.6947 28.7226 64.6905 30.6866C67.0305 32.1576 69.3705 33.6285 71.7238 35.0459C72.4392 35.417 73.0373 35.9816 73.4508 36.6762C73.8642 37.3708 74.0765 38.1678 74.0638 38.9773C74.0638 47.8117 74.0638 56.6505 74.0638 65.4938L74.0505 65.6276Z" fill="#51DED6"/>
<path d="M104.785 63.5988C109.213 63.5988 112.756 61.5669 115.049 58.3888L109.943 54.7939C108.849 56.3048 106.817 57.2426 104.837 57.2426C100.982 57.2426 98.3765 54.4813 98.3765 50.8864C98.3765 47.3436 100.982 44.5823 104.837 44.5823C106.817 44.5823 108.849 45.5201 109.943 47.031L115.049 43.4361C112.756 40.3101 109.213 38.2261 104.785 38.2261C97.6992 38.2261 91.4472 43.1756 91.4472 50.8864C91.4472 58.5972 97.6992 63.5988 104.785 63.5988Z" fill="#082D42"/>
<path d="M137.765 38.8513V41.7689C136.045 39.3202 132.763 38.2782 129.95 38.2782C123.698 38.2782 118.019 43.1235 118.019 50.9385C118.019 58.7535 123.698 63.5988 129.95 63.5988C132.659 63.5988 136.045 62.5047 137.765 60.1081V63.1299H144.59V38.8513H137.765ZM131.252 57.2426C127.814 57.2426 124.948 54.4813 124.948 50.9385C124.948 47.3436 127.814 44.6865 131.252 44.6865C134.43 44.6865 137.556 47.1873 137.556 50.9385C137.556 54.6376 134.587 57.2426 131.252 57.2426Z" fill="#082D42"/>
<path d="M165.805 38.8513H160.647V29.9422H153.822V38.8513H149.394V44.1134H153.822V63.1299H160.647V44.1134H165.805V38.8513Z" fill="#082D42"/>
<path d="M181.314 63.5988C188.244 63.5988 194.391 58.5972 194.391 50.9385C194.391 43.2277 188.244 38.2261 181.314 38.2261C174.385 38.2261 168.237 43.2277 168.237 50.9385C168.237 58.5972 174.385 63.5988 181.314 63.5988ZM181.314 57.2426C177.928 57.2426 175.167 54.6897 175.167 50.9385C175.167 47.1352 177.928 44.5823 181.314 44.5823C184.701 44.5823 187.462 47.1352 187.462 50.9385C187.462 54.6897 184.701 57.2426 181.314 57.2426Z" fill="#082D42"/>
</svg>
