<svg width="261" height="330" viewBox="0 0 261 330" fill="none" xmlns="http://www.w3.org/2000/svg">
<g clip-path="url(#clip0)">
<path d="M231.496 53.0789C250.946 77.1011 263.526 103.453 260.569 126.926C257.682 150.329 239.272 170.919 219.811 199.468C200.361 228.087 179.744 264.738 150.05 273.864C120.29 282.991 81.4564 264.667 50.8712 236.048C20.2859 207.429 -2.05112 168.653 0.148402 132.005C2.34792 95.358 29.0171 60.9033 59.5949 36.8848C90.1727 12.8663 124.689 -0.741935 155.137 3.33906C185.584 7.42005 211.975 29.0604 231.496 53.0789Z" fill="#F2F2F2"/>
<path fill-rule="evenodd" clip-rule="evenodd" d="M124.395 160.813C144.459 160.813 155.233 174.199 157.236 187.793C159.272 201.698 156.95 213.21 157.529 230.02C157.923 241.339 162.913 248.9 166.112 258.991C169.311 269.082 83.9347 271.627 84.4437 262.189C84.9527 252.751 91.0608 243.083 91.28 231.326C91.5029 219.339 89.7939 212.145 90.0279 192.645C90.2026 177.252 104.325 160.813 124.395 160.813Z" fill="black"/>
<path fill-rule="evenodd" clip-rule="evenodd" d="M42.0177 329.555C41.2486 320.08 45.4805 286.289 58.5624 261.057C107.424 234.038 168.728 246.908 192.967 261.057C201.175 269.383 207.108 324.691 205.314 328.661" fill="#FFD98E"/>
<path d="M70.2207 328.661C70.9898 322.513 72.2084 312.608 74.1962 303.433" stroke="#FF8364" stroke-width="5.73" stroke-linecap="round" stroke-linejoin="round"/>
<path d="M178.588 328.661C177.819 322.513 176.6 312.608 174.612 303.433" stroke="#FF8364" stroke-width="5.73" stroke-linecap="round" stroke-linejoin="round"/>
<path fill-rule="evenodd" clip-rule="evenodd" d="M93.3828 204.688C93.3821 203.615 93.7 202.565 94.2963 201.672C94.8927 200.78 95.7407 200.083 96.7332 199.672C97.7257 199.26 98.8182 199.151 99.8725 199.359C100.927 199.567 101.896 200.083 102.657 200.841C103.418 201.599 103.937 202.565 104.148 203.617C104.359 204.669 104.253 205.76 103.844 206.753C103.434 207.745 102.739 208.593 101.847 209.191C100.954 209.789 99.9044 210.11 98.8296 210.112C98.1152 210.113 97.4074 209.974 96.7469 209.702C96.0864 209.43 95.486 209.031 94.9801 208.527C94.4743 208.024 94.0728 207.425 93.7987 206.766C93.5246 206.107 93.3833 205.401 93.3828 204.688V204.688Z" fill="#D18C65"/>
<path fill-rule="evenodd" clip-rule="evenodd" d="M143.229 204.688C143.228 203.614 143.546 202.564 144.143 201.671C144.74 200.778 145.588 200.082 146.581 199.671C147.575 199.259 148.668 199.151 149.722 199.36C150.777 199.569 151.746 200.086 152.506 200.845C153.267 201.604 153.785 202.571 153.995 203.624C154.205 204.677 154.098 205.768 153.686 206.76C153.275 207.752 152.578 208.6 151.684 209.197C150.79 209.793 149.739 210.112 148.664 210.112C147.223 210.112 145.841 209.54 144.822 208.523C143.803 207.506 143.23 206.127 143.229 204.688V204.688Z" fill="#D18C65"/>
<path fill-rule="evenodd" clip-rule="evenodd" d="M146.042 111.252C140.558 106.981 139.206 111.752 138.347 114.591C137.489 117.429 137.552 122.433 141.851 122.326C145.618 125.698 149.126 121.332 150.203 119.113C151.281 116.894 153.926 112.083 146.042 111.252Z" fill="#FF8364"/>
<path d="M149.668 108.209C147.777 108.874 146.714 109.779 146.112 111.352" stroke="#FFD98E" stroke-width="2.83" stroke-linecap="round" stroke-linejoin="round"/>
<path fill-rule="evenodd" clip-rule="evenodd" d="M110.28 136.594C110.28 135.337 110.652 134.108 111.351 133.062C112.049 132.016 113.043 131.201 114.205 130.718C115.368 130.236 116.648 130.109 117.883 130.352C119.118 130.596 120.253 131.2 121.145 132.088C122.036 132.975 122.645 134.107 122.892 135.34C123.14 136.572 123.016 137.851 122.537 139.013C122.057 140.175 121.243 141.17 120.198 141.87C119.152 142.571 117.922 142.947 116.663 142.95C115.826 142.951 114.997 142.789 114.223 142.47C113.449 142.152 112.745 141.684 112.152 141.094C111.559 140.503 111.089 139.802 110.768 139.03C110.446 138.258 110.281 137.43 110.28 136.594V136.594Z" fill="#6BD5E1"/>
<path fill-rule="evenodd" clip-rule="evenodd" d="M66.1826 139.399L83.8197 134.929L90.9644 163.043L73.3311 167.495L66.1826 139.399Z" fill="#DFDFDF"/>
<path fill-rule="evenodd" clip-rule="evenodd" d="M69.8975 142.497L82.032 139.422L82.9683 143.106L70.8337 146.174L69.8975 142.497Z" fill="#FF8364"/>
<path d="M71.8516 150.181L83.9861 147.105" stroke="#6BD5E1" stroke-width="3.11" stroke-linecap="round" stroke-linejoin="round"/>
<path d="M72.8701 154.18L85.0084 151.104" stroke="#6BD5E1" stroke-width="3.11" stroke-linecap="round" stroke-linejoin="round"/>
<path d="M73.9365 158.354L86.0822 155.274" stroke="#6BD5E1" stroke-width="3.11" stroke-linecap="round" stroke-linejoin="round"/>
<path d="M74.9541 162.386L79.7172 161.177" stroke="#6BD5E1" stroke-width="3.11" stroke-linecap="round" stroke-linejoin="round"/>
<path d="M85.1904 159.789L87.1001 159.307" stroke="#6BD5E1" stroke-width="3.11" stroke-linecap="round" stroke-linejoin="round"/>
<path fill-rule="evenodd" clip-rule="evenodd" d="M54.4902 75.5652L100.13 53.8655L114.394 83.7717L68.7537 105.475L54.4902 75.5652Z" fill="#DFDFDF"/>
<path d="M70.2734 98.8601L74.8137 85.5894L83.2737 87.1847L86.5952 70.82L94.7691 72.1778L97.147 60.6323" stroke="#FF8364" stroke-width="3.11" stroke-linecap="round" stroke-linejoin="round"/>
<path fill-rule="evenodd" clip-rule="evenodd" d="M73.212 86.4428C73.0129 86.0234 72.9427 85.5545 73.0104 85.0953C73.078 84.6361 73.2804 84.2072 73.592 83.8628C73.9036 83.5184 74.3104 83.2739 74.7611 83.1602C75.2117 83.0465 75.686 83.0687 76.1241 83.224C76.5621 83.3793 76.9442 83.6607 77.2222 84.0327C77.5002 84.4047 77.6615 84.8506 77.6858 85.3141C77.7102 85.7776 77.5964 86.2379 77.3589 86.6369C77.1214 87.0359 76.7709 87.3557 76.3515 87.5558C76.0722 87.6891 75.7694 87.7661 75.4603 87.7822C75.1512 87.7984 74.842 87.7535 74.5503 87.6501C74.2587 87.5467 73.9903 87.3869 73.7607 87.1797C73.531 86.9725 73.3445 86.7221 73.212 86.4428V86.4428Z" fill="#FFD98E"/>
<path fill-rule="evenodd" clip-rule="evenodd" d="M84.5811 72.204C84.3809 71.7839 84.31 71.314 84.3772 70.8537C84.4445 70.3934 84.6469 69.9633 84.9589 69.6178C85.2709 69.2724 85.6785 69.0271 86.1302 68.913C86.5818 68.7988 87.0572 68.821 87.4962 68.9766C87.9352 69.1323 88.3182 69.4144 88.5966 69.7874C88.8751 70.1603 89.0365 70.6073 89.0605 71.0719C89.0846 71.5365 88.9701 71.9978 88.7316 72.3974C88.4931 72.797 88.1413 73.117 87.7206 73.317C87.4414 73.4502 87.1386 73.5272 86.8295 73.5434C86.5204 73.5595 86.2112 73.5146 85.9195 73.4112C85.6278 73.3078 85.3595 73.148 85.1298 72.9408C84.9001 72.7336 84.7137 72.4832 84.5811 72.204V72.204Z" fill="#FFD98E"/>
<path fill-rule="evenodd" clip-rule="evenodd" d="M171.035 97.4244C171.035 95.8315 171.508 94.2744 172.395 92.9502C173.282 91.6259 174.542 90.5941 176.016 89.9852C177.49 89.3763 179.112 89.2177 180.676 89.5296C182.24 89.8414 183.677 90.6096 184.804 91.737C185.931 92.8644 186.697 94.3003 187.007 95.8629C187.316 97.4256 187.155 99.0448 186.542 100.516C185.93 101.986 184.894 103.243 183.566 104.126C182.238 105.008 180.678 105.478 179.083 105.475C176.947 105.472 174.899 104.623 173.39 103.113C171.881 101.603 171.034 99.5573 171.035 97.4244V97.4244Z" fill="#FFD98E"/>
<path d="M192.707 96.0183C193.094 97.395 193.157 98.8424 192.892 100.247C192.626 101.653 192.038 102.977 191.175 104.118C190.312 105.259 189.196 106.185 187.915 106.824C186.634 107.463 185.222 107.797 183.79 107.801C183.183 107.802 182.576 107.744 181.98 107.627" stroke="#FF8364" stroke-width="3.11" stroke-linecap="round" stroke-linejoin="round"/>
<path fill-rule="evenodd" clip-rule="evenodd" d="M174.207 103.539L171.116 109.074L183.879 111.122L182.482 104.674" fill="#FFD98E"/>
<path fill-rule="evenodd" clip-rule="evenodd" d="M177.195 97.4244C177.195 97.0487 177.307 96.6815 177.516 96.3691C177.725 96.0567 178.022 95.8133 178.37 95.6695C178.717 95.5257 179.1 95.4881 179.469 95.5614C179.838 95.6347 180.177 95.8156 180.443 96.0813C180.709 96.3469 180.89 96.6854 180.963 97.0538C181.037 97.4223 180.999 97.8042 180.855 98.1513C180.711 98.4984 180.467 98.7951 180.154 99.0038C179.842 99.2125 179.474 99.3239 179.098 99.3239C178.593 99.3239 178.109 99.1238 177.752 98.7676C177.396 98.4113 177.195 97.9282 177.195 97.4244Z" fill="#1B3C87"/>
<path fill-rule="evenodd" clip-rule="evenodd" d="M190.292 95.525C190.292 95.1493 190.404 94.7821 190.613 94.4697C190.822 94.1573 191.119 93.9139 191.466 93.7701C191.814 93.6263 192.196 93.5887 192.565 93.662C192.934 93.7353 193.273 93.9162 193.539 94.1819C193.805 94.4475 193.987 94.786 194.06 95.1544C194.133 95.5229 194.096 95.9048 193.952 96.2519C193.808 96.599 193.564 96.8957 193.251 97.1044C192.938 97.3131 192.571 97.4245 192.194 97.4245C191.69 97.4236 191.207 97.2231 190.85 96.8671C190.494 96.5111 190.293 96.0285 190.292 95.525V95.525Z" fill="#FFD98E"/>
<path fill-rule="evenodd" clip-rule="evenodd" d="M37.4917 36.9033L49.4144 40.1199L37.6737 83.5268L25.751 80.3213L37.4917 36.9033Z" fill="#FF8364"/>
<path d="M29.541 66.3088L36.1061 68.0822" stroke="#FFD98E" stroke-width="4.23" stroke-linecap="round" stroke-linejoin="round"/>
<path d="M27.457 74.0105L34.0259 75.7802" stroke="#FFD98E" stroke-width="4.23" stroke-linecap="round" stroke-linejoin="round"/>
<path d="M31.6221 58.6179L38.1909 60.3913" stroke="#FFD98E" stroke-width="4.23" stroke-linecap="round" stroke-linejoin="round"/>
<path d="M33.7061 50.9124L40.2712 52.682" stroke="#FFD98E" stroke-width="4.23" stroke-linecap="round" stroke-linejoin="round"/>
<path d="M35.7861 43.2141L42.355 44.9838" stroke="#FFD98E" stroke-width="4.23" stroke-linecap="round" stroke-linejoin="round"/>
<path fill-rule="evenodd" clip-rule="evenodd" d="M160.294 27.9031L205.314 38.7548L197.883 69.4067L152.882 58.5513L160.294 27.9031Z" fill="#DFDFDF"/>
<path fill-rule="evenodd" clip-rule="evenodd" d="M187.22 61.1335C187.445 60.202 187.942 59.358 188.647 58.7084C189.353 58.0588 190.235 57.6327 191.183 57.484C192.131 57.3353 193.102 57.4706 193.973 57.873C194.844 58.2753 195.576 58.9265 196.077 59.7442C196.577 60.5619 196.824 61.5095 196.785 62.467C196.746 63.4245 196.423 64.349 195.858 65.1236C195.293 65.8981 194.511 66.488 193.61 66.8185C192.709 67.149 191.73 67.2054 190.797 66.9804C189.547 66.6788 188.467 65.8934 187.796 64.7969C187.125 63.7004 186.918 62.3826 187.22 61.1335V61.1335Z" fill="#FF8364"/>
<path fill-rule="evenodd" clip-rule="evenodd" d="M188.653 65.1216L185.417 73.547L189.935 72.5267L192.837 75.2165L193.42 66.038" fill="#FF8364"/>
<path d="M162.954 35.8533L198.496 44.4234" stroke="#6BD5E1" stroke-width="3.11" stroke-linecap="round" stroke-linejoin="round"/>
<path d="M160.896 44.2639L182.359 49.4394" stroke="#6BD5E1" stroke-width="3.11" stroke-linecap="round" stroke-linejoin="round"/>
<path fill-rule="evenodd" clip-rule="evenodd" d="M88.8496 32.084L84.0195 26.8567L90.9674 25.2873L97.9189 23.718L95.8048 30.5147L93.6907 37.3077L88.8496 32.084Z" fill="#6BD5E1"/>
<path fill-rule="evenodd" clip-rule="evenodd" d="M184.815 141.677L178.198 144.319L179.213 137.27L180.227 130.221L185.826 134.617L191.429 139.017L184.815 141.677Z" fill="#FFD98E"/>
<path d="M130.5 56.7628C130.5 56.0804 130.703 55.4133 131.082 54.8459C131.462 54.2785 132.002 53.8363 132.633 53.5751C133.264 53.314 133.959 53.2457 134.629 53.3788C135.3 53.5119 135.915 53.8405 136.399 54.3231C136.882 54.8056 137.211 55.4204 137.344 56.0897C137.478 56.759 137.409 57.4527 137.148 58.0832C136.886 58.7136 136.443 59.2525 135.875 59.6316C135.307 60.0107 134.639 60.2131 133.955 60.2131C133.039 60.2131 132.16 59.8496 131.512 59.2025C130.864 58.5555 130.5 57.6779 130.5 56.7628Z" stroke="#FF8364" stroke-width="3.11" stroke-linecap="round" stroke-linejoin="round"/>
<path fill-rule="evenodd" clip-rule="evenodd" d="M33.959 114.565C33.959 113.882 34.1616 113.215 34.5413 112.648C34.921 112.08 35.4606 111.638 36.092 111.377C36.7234 111.116 37.4181 111.047 38.0884 111.181C38.7587 111.314 39.3744 111.642 39.8576 112.125C40.3408 112.607 40.6699 113.222 40.8032 113.891C40.9366 114.561 40.8681 115.254 40.6066 115.885C40.3451 116.515 39.9022 117.054 39.334 117.433C38.7658 117.812 38.0977 118.015 37.4143 118.015C36.4979 118.015 35.619 117.651 34.971 117.004C34.323 116.357 33.959 115.48 33.959 114.565Z" fill="#FFD98E"/>
<path fill-rule="evenodd" clip-rule="evenodd" d="M112.135 225.104H135.241C135.241 225.104 135.349 248.94 135.241 258.319C135.241 262.189 112.142 261.747 112.142 258.319L112.135 225.104Z" fill="#D18C65"/>
<path fill-rule="evenodd" clip-rule="evenodd" d="M100.315 202.313C100.315 184.609 111.09 170.255 124.402 170.255C137.715 170.255 148.493 184.609 148.493 202.313C148.493 220.017 137.718 234.375 124.402 234.375C111.086 234.375 100.315 220.021 100.315 202.313Z" fill="#E49D75"/>
<path fill-rule="evenodd" clip-rule="evenodd" d="M137.411 167.959C131.291 182.157 105.937 196.017 95.2592 199.26C93.5725 190.783 104.499 154.673 137.411 167.959Z" fill="black"/>
<path fill-rule="evenodd" clip-rule="evenodd" d="M123.861 167.521C119.227 169.283 134.29 193.339 152.339 199.26C159.707 188.787 142.72 167.02 123.861 167.521Z" fill="black"/>
<path fill-rule="evenodd" clip-rule="evenodd" d="M158.302 6.35531C158.301 5.09732 158.674 3.86738 159.373 2.82109C160.073 1.7748 161.067 0.959185 162.231 0.477433C163.395 -0.00431889 164.676 -0.130559 165.911 0.114683C167.147 0.359925 168.282 0.96563 169.173 1.85516C170.064 2.7447 170.67 3.87809 170.916 5.11195C171.162 6.3458 171.035 7.62468 170.553 8.78677C170.07 9.94887 169.253 10.942 168.206 11.6404C167.158 12.3388 165.926 12.7113 164.666 12.7105C162.978 12.7105 161.359 12.041 160.166 10.8491C158.972 9.65729 158.302 8.04082 158.302 6.35531V6.35531Z" fill="#FFD98E"/>
<path d="M48.5303 173.464C48.5303 172.29 48.8789 171.143 49.5321 170.166C50.1853 169.19 51.1138 168.429 52.2 167.98C53.2863 167.531 54.4815 167.413 55.6347 167.642C56.7878 167.871 57.8471 168.437 58.6784 169.267C59.5098 170.097 60.076 171.155 60.3053 172.306C60.5347 173.458 60.417 174.651 59.9671 175.736C59.5171 176.821 58.7552 177.748 57.7776 178.4C56.8 179.052 55.6507 179.4 54.4749 179.4C52.8983 179.4 51.3863 178.775 50.2714 177.662C49.1566 176.548 48.5303 175.039 48.5303 173.464Z" stroke="#6BD5E1" stroke-width="3.11" stroke-linecap="round" stroke-linejoin="round"/>
<path d="M180.245 170.964C180.244 170.281 180.447 169.613 180.826 169.044C181.206 168.476 181.746 168.032 182.378 167.77C183.01 167.508 183.705 167.439 184.377 167.572C185.048 167.705 185.665 168.034 186.149 168.517C186.633 169 186.963 169.615 187.096 170.285C187.23 170.955 187.162 171.65 186.9 172.281C186.639 172.913 186.195 173.452 185.626 173.832C185.057 174.212 184.388 174.414 183.704 174.414C183.25 174.415 182.8 174.326 182.381 174.153C181.961 173.98 181.58 173.726 181.258 173.405C180.937 173.085 180.682 172.704 180.508 172.285C180.335 171.866 180.245 171.417 180.245 170.964V170.964Z" stroke="#FF8364" stroke-width="3.11" stroke-linecap="round" stroke-linejoin="round"/>
<path d="M231.496 53.3571C250.946 77.3756 263.526 103.731 260.569 127.186C257.682 150.626 239.272 171.194 219.811 199.746C200.361 228.365 179.744 265.012 150.05 274.139C120.29 283.269 81.4564 264.945 50.8712 236.326C20.2859 207.708 -2.05112 168.931 0.148402 132.28C2.34792 95.6288 29.0171 61.1815 59.5949 37.1593C90.1727 13.1371 124.689 -0.448881 155.137 3.59872C185.584 7.64632 211.975 29.3349 231.496 53.3571Z" fill="#F2F2F2"/>
<path fill-rule="evenodd" clip-rule="evenodd" d="M124.395 161.088C144.459 161.088 155.233 174.477 157.236 188.071C159.272 201.972 156.95 213.484 157.529 230.294C157.923 241.617 162.913 249.174 166.112 259.269C169.311 269.364 83.9347 271.905 84.4437 262.463C84.9527 253.021 91.0608 243.357 91.28 231.6C91.5029 219.617 89.7939 212.419 90.0279 192.923C90.2026 177.527 104.325 161.088 124.395 161.088Z" fill="black"/>
<path fill-rule="evenodd" clip-rule="evenodd" d="M42.0177 329.818C41.2486 320.343 45.4805 286.552 58.5624 261.324C107.424 234.304 168.728 247.171 192.967 261.324C201.175 269.649 207.108 324.954 205.314 328.924" fill="#FFD98E"/>
<path d="M70.2207 328.935C70.9898 322.788 72.2084 312.882 74.1962 303.707" stroke="#FF8364" stroke-width="5.73" stroke-linecap="round" stroke-linejoin="round"/>
<path d="M178.588 328.935C177.819 322.788 176.6 312.882 174.612 303.707" stroke="#FF8364" stroke-width="5.73" stroke-linecap="round" stroke-linejoin="round"/>
<path fill-rule="evenodd" clip-rule="evenodd" d="M93.3828 204.962C93.3821 203.889 93.7 202.84 94.2963 201.947C94.8927 201.054 95.7407 200.358 96.7332 199.946C97.7257 199.535 98.8182 199.426 99.8725 199.634C100.927 199.842 101.896 200.358 102.657 201.116C103.418 201.873 103.937 202.839 104.148 203.892C104.359 204.944 104.253 206.035 103.844 207.027C103.434 208.019 102.739 208.868 101.847 209.466C100.954 210.064 99.9044 210.384 98.8296 210.386C98.1152 210.388 97.4074 210.249 96.7469 209.977C96.0864 209.705 95.486 209.306 94.9801 208.802C94.4743 208.298 94.0728 207.7 93.7987 207.041C93.5246 206.382 93.3833 205.676 93.3828 204.962V204.962Z" fill="#D18C65"/>
<path fill-rule="evenodd" clip-rule="evenodd" d="M143.229 204.962C143.228 203.889 143.546 202.839 144.143 201.946C144.74 201.053 145.588 200.357 146.581 199.945C147.575 199.534 148.668 199.426 149.722 199.635C150.777 199.844 151.746 200.361 152.506 201.119C153.267 201.878 153.785 202.845 153.995 203.898C154.205 204.951 154.098 206.043 153.686 207.035C153.275 208.027 152.578 208.875 151.684 209.471C150.79 210.068 149.739 210.386 148.664 210.386C147.223 210.386 145.841 209.815 144.822 208.798C143.803 207.781 143.23 206.401 143.229 204.962V204.962Z" fill="#D18C65"/>
<path fill-rule="evenodd" clip-rule="evenodd" d="M146.042 111.53C140.558 107.256 139.206 112.031 138.347 114.869C137.489 117.707 137.552 122.712 141.851 122.604C145.618 125.98 149.126 121.613 150.203 119.395C151.281 117.176 153.926 112.361 146.042 111.53Z" fill="#FF8364"/>
<path d="M149.668 108.484C147.777 109.148 146.714 110.053 146.112 111.626" stroke="#FFD98E" stroke-width="2.83" stroke-linecap="round" stroke-linejoin="round"/>
<path fill-rule="evenodd" clip-rule="evenodd" d="M110.28 136.869C110.28 135.612 110.652 134.383 111.351 133.337C112.049 132.291 113.043 131.475 114.205 130.993C115.368 130.511 116.648 130.383 117.883 130.627C119.118 130.871 120.253 131.475 121.145 132.362C122.036 133.25 122.645 134.382 122.892 135.614C123.14 136.847 123.016 138.125 122.537 139.288C122.057 140.45 121.243 141.444 120.198 142.145C119.152 142.846 117.922 143.221 116.663 143.224C115.826 143.227 114.996 143.064 114.222 142.746C113.448 142.427 112.744 141.96 112.151 141.369C111.558 140.779 111.088 140.078 110.767 139.305C110.446 138.533 110.28 137.705 110.28 136.869V136.869Z" fill="#6BD5E1"/>
<path fill-rule="evenodd" clip-rule="evenodd" d="M66.1826 139.674L83.8197 135.203L90.9644 163.317L73.3311 167.788L66.1826 139.674Z" fill="#DFDFDF"/>
<path fill-rule="evenodd" clip-rule="evenodd" d="M69.8975 142.772L82.032 139.696L82.9683 143.38L70.8337 146.456L69.8975 142.772Z" fill="#FF8364"/>
<path d="M71.8516 150.459L83.9861 147.379" stroke="#6BD5E1" stroke-width="3.11" stroke-linecap="round" stroke-linejoin="round"/>
<path d="M72.8701 154.458L85.0084 151.368" stroke="#6BD5E1" stroke-width="3.11" stroke-linecap="round" stroke-linejoin="round"/>
<path d="M73.9365 158.628L86.0822 155.549" stroke="#6BD5E1" stroke-width="3.11" stroke-linecap="round" stroke-linejoin="round"/>
<path d="M74.9541 162.661L79.7172 161.455" stroke="#6BD5E1" stroke-width="3.11" stroke-linecap="round" stroke-linejoin="round"/>
<path d="M85.1904 160.064L87.1001 159.582" stroke="#6BD5E1" stroke-width="3.11" stroke-linecap="round" stroke-linejoin="round"/>
<path fill-rule="evenodd" clip-rule="evenodd" d="M54.4902 75.8433L100.13 54.1399L114.394 84.0498L68.7537 105.735L54.4902 75.8433Z" fill="#DFDFDF"/>
<path d="M70.2734 99.1349L74.8137 85.868L83.2737 87.441L86.5952 71.0763L94.7691 72.4341L97.147 60.8923" stroke="#FF8364" stroke-width="3.11" stroke-linecap="round" stroke-linejoin="round"/>
<path fill-rule="evenodd" clip-rule="evenodd" d="M73.212 86.7359C73.0118 86.3159 72.9408 85.846 73.0081 85.3857C73.0753 84.9253 73.2777 84.4953 73.5898 84.1498C73.9018 83.8044 74.3094 83.5591 74.761 83.4449C75.2127 83.3308 75.6881 83.353 76.1271 83.5086C76.5661 83.6642 76.9491 83.9464 77.2275 84.3193C77.506 84.6923 77.6674 85.1393 77.6914 85.6039C77.7154 86.0685 77.601 86.5297 77.3625 86.9293C77.124 87.329 76.7721 87.649 76.3515 87.8489C75.7872 88.1161 75.1399 88.149 74.5514 87.9403C73.9629 87.7317 73.4812 87.2986 73.212 86.7359V86.7359Z" fill="#FFD98E"/>
<path fill-rule="evenodd" clip-rule="evenodd" d="M84.5811 72.4786C84.3809 72.0586 84.31 71.5887 84.3772 71.1283C84.4445 70.668 84.6469 70.2379 84.9589 69.8925C85.2709 69.5471 85.6785 69.3018 86.1302 69.1876C86.5818 69.0735 87.0572 69.0956 87.4962 69.2513C87.9352 69.4069 88.3182 69.6891 88.5966 70.062C88.8751 70.435 89.0365 70.882 89.0605 71.3466C89.0846 71.8111 88.9701 72.2724 88.7316 72.672C88.4931 73.0716 88.1413 73.3916 87.7206 73.5916C87.4414 73.7249 87.1386 73.8018 86.8295 73.818C86.5204 73.8342 86.2112 73.7893 85.9195 73.6859C85.6278 73.5825 85.3595 73.4226 85.1298 73.2155C84.9001 73.0083 84.7137 72.7579 84.5811 72.4786V72.4786Z" fill="#FFD98E"/>
<path fill-rule="evenodd" clip-rule="evenodd" d="M171.035 97.6991C171.032 96.1055 171.503 94.547 172.388 93.2208C173.273 91.8946 174.532 90.8604 176.005 90.2492C177.479 89.638 179.101 89.4774 180.667 89.7875C182.232 90.0977 183.67 90.8647 184.799 91.9915C185.927 93.1183 186.695 94.5542 187.006 96.1173C187.316 97.6803 187.156 99.3003 186.543 100.772C185.931 102.244 184.896 103.501 183.568 104.384C182.239 105.268 180.679 105.738 179.083 105.735C176.95 105.731 174.905 104.883 173.397 103.377C171.888 101.871 171.039 99.8291 171.035 97.6991Z" fill="#FFD98E"/>
<path d="M192.707 96.2966C192.941 97.1171 193.058 97.9663 193.056 98.8194C193.056 100.188 192.753 101.541 192.167 102.778C191.581 104.016 190.728 105.109 189.668 105.978C188.608 106.846 187.369 107.469 186.039 107.802C184.709 108.135 183.321 108.169 181.977 107.901" stroke="#FF8364" stroke-width="3.11" stroke-linecap="round" stroke-linejoin="round"/>
<path fill-rule="evenodd" clip-rule="evenodd" d="M174.207 103.813L171.116 109.337L183.879 111.389L182.482 104.937" fill="#FFD98E"/>
<path fill-rule="evenodd" clip-rule="evenodd" d="M177.195 97.6988C177.195 97.3231 177.307 96.9559 177.516 96.6435C177.725 96.3311 178.022 96.0877 178.37 95.9439C178.717 95.8001 179.1 95.7625 179.469 95.8358C179.838 95.9091 180.177 96.09 180.443 96.3557C180.709 96.6213 180.89 96.9598 180.963 97.3282C181.037 97.6967 180.999 98.0786 180.855 98.4257C180.711 98.7728 180.467 99.0695 180.154 99.2782C179.842 99.4869 179.474 99.5983 179.098 99.5983C178.593 99.5983 178.109 99.3982 177.752 99.042C177.396 98.6858 177.195 98.2026 177.195 97.6988Z" fill="#1B3C87"/>
<path fill-rule="evenodd" clip-rule="evenodd" d="M190.292 95.7994C190.292 95.4237 190.404 95.0565 190.613 94.7441C190.822 94.4317 191.119 94.1883 191.466 94.0445C191.814 93.9007 192.196 93.8631 192.565 93.9364C192.934 94.0097 193.273 94.1906 193.539 94.4563C193.805 94.7219 193.987 95.0604 194.06 95.4288C194.133 95.7973 194.096 96.1793 193.952 96.5263C193.808 96.8734 193.564 97.1701 193.251 97.3788C192.938 97.5875 192.571 97.6989 192.194 97.6989C191.69 97.6989 191.206 97.4988 190.849 97.1426C190.492 96.7864 190.292 96.3032 190.292 95.7994Z" fill="#FFD98E"/>
<path fill-rule="evenodd" clip-rule="evenodd" d="M37.4921 37.178L49.4148 40.3983L37.6741 83.8052L25.7402 80.5886L37.4921 37.178Z" fill="#FF8364"/>
<path d="M29.541 66.5869L36.1061 68.3566" stroke="#FFD98E" stroke-width="4.23" stroke-linecap="round" stroke-linejoin="round"/>
<path d="M27.457 74.2852L34.0259 76.0548" stroke="#FFD98E" stroke-width="4.23" stroke-linecap="round" stroke-linejoin="round"/>
<path d="M31.6221 58.8887L38.1909 60.6583" stroke="#FFD98E" stroke-width="4.23" stroke-linecap="round" stroke-linejoin="round"/>
<path d="M33.7061 51.198L40.2712 52.9677" stroke="#FFD98E" stroke-width="4.23" stroke-linecap="round" stroke-linejoin="round"/>
<path d="M35.7861 43.4885L42.355 45.2619" stroke="#FFD98E" stroke-width="4.23" stroke-linecap="round" stroke-linejoin="round"/>
<path fill-rule="evenodd" clip-rule="evenodd" d="M160.294 28.196L205.314 39.0329L197.883 69.6812L152.882 58.8257L160.294 28.196Z" fill="#DFDFDF"/>
<path fill-rule="evenodd" clip-rule="evenodd" d="M187.22 61.4079C187.445 60.4764 187.942 59.6324 188.647 58.9828C189.353 58.3332 190.235 57.9071 191.183 57.7584C192.131 57.6097 193.102 57.7451 193.973 58.1474C194.844 58.5497 195.576 59.2009 196.077 60.0186C196.577 60.8363 196.824 61.7839 196.785 62.7414C196.746 63.6989 196.423 64.6234 195.858 65.398C195.293 66.1725 194.511 66.7624 193.61 67.0929C192.709 67.4234 191.73 67.4798 190.797 67.2548C189.547 66.9532 188.467 66.1678 187.796 65.0713C187.125 63.9748 186.918 62.657 187.22 61.4079V61.4079Z" fill="#FF8364"/>
<path fill-rule="evenodd" clip-rule="evenodd" d="M188.653 65.3999L185.417 73.829L189.935 72.8051L192.837 75.4948L193.42 66.3126" fill="#FF8364"/>
<path d="M162.954 36.1316L198.496 44.7017" stroke="#6BD5E1" stroke-width="3.11" stroke-linecap="round" stroke-linejoin="round"/>
<path d="M160.896 44.5422L182.359 49.714" stroke="#6BD5E1" stroke-width="3.11" stroke-linecap="round" stroke-linejoin="round"/>
<path fill-rule="evenodd" clip-rule="evenodd" d="M88.8496 32.3584L84.0195 27.1347L90.9674 25.5654L97.9189 23.9961L95.8011 30.7928L93.687 37.5895L88.8496 32.3584Z" fill="#6BD5E1"/>
<path fill-rule="evenodd" clip-rule="evenodd" d="M184.815 141.952L178.198 144.597L179.213 137.548L180.227 130.499L185.826 134.895L191.429 139.292L184.815 141.952Z" fill="#FFD98E"/>
<path d="M130.5 57.045C130.5 56.3626 130.703 55.6955 131.082 55.1281C131.462 54.5607 132.002 54.1185 132.633 53.8574C133.264 53.5962 133.959 53.5279 134.629 53.661C135.3 53.7942 135.915 54.1228 136.399 54.6053C136.882 55.0878 137.211 55.7026 137.344 56.3719C137.478 57.0412 137.409 57.7349 137.148 58.3654C136.886 58.9958 136.443 59.5347 135.875 59.9138C135.307 60.293 134.639 60.4953 133.955 60.4953C133.039 60.4953 132.16 60.1318 131.512 59.4847C130.864 58.8377 130.5 57.9601 130.5 57.045Z" stroke="#FF8364" stroke-width="3.11" stroke-linecap="round" stroke-linejoin="round"/>
<path fill-rule="evenodd" clip-rule="evenodd" d="M33.959 114.839C33.959 114.157 34.1616 113.489 34.5413 112.922C34.921 112.355 35.4606 111.912 36.092 111.651C36.7234 111.39 37.4181 111.322 38.0884 111.455C38.7587 111.588 39.3744 111.917 39.8576 112.399C40.3408 112.882 40.6699 113.497 40.8032 114.166C40.9366 114.835 40.8681 115.529 40.6066 116.159C40.3451 116.79 39.9022 117.329 39.334 117.708C38.7658 118.087 38.0977 118.289 37.4143 118.289C36.4979 118.289 35.619 117.926 34.971 117.279C34.323 116.632 33.959 115.754 33.959 114.839Z" fill="#FFD98E"/>
<path fill-rule="evenodd" clip-rule="evenodd" d="M112.135 225.378H135.241C135.241 225.378 135.349 249.215 135.241 258.597C135.241 262.467 112.142 262.022 112.142 258.597L112.135 225.378Z" fill="#D18C65"/>
<path fill-rule="evenodd" clip-rule="evenodd" d="M100.315 202.591C100.315 184.884 111.09 170.533 124.402 170.533C137.715 170.533 148.493 184.884 148.493 202.591C148.493 220.299 137.718 234.649 124.402 234.649C111.086 234.649 100.315 220.296 100.315 202.591Z" fill="#E49D75"/>
<path fill-rule="evenodd" clip-rule="evenodd" d="M137.411 168.233C131.291 182.431 105.937 196.296 95.2592 199.538C93.5725 191.065 104.499 154.951 137.411 168.233Z" fill="black"/>
<path fill-rule="evenodd" clip-rule="evenodd" d="M123.861 167.796C119.227 169.547 134.29 193.614 152.332 199.538C159.707 189.061 142.72 167.299 123.861 167.796Z" fill="black"/>
<path fill-rule="evenodd" clip-rule="evenodd" d="M158.302 6.63344C158.3 5.37529 158.673 4.14498 159.372 3.0982C160.071 2.05143 161.065 1.23523 162.229 0.752913C163.392 0.270593 164.673 0.143822 165.909 0.388645C167.145 0.633468 168.28 1.23888 169.172 2.12827C170.063 3.01765 170.67 4.15104 170.916 5.385C171.162 6.61895 171.035 7.89802 170.553 9.06033C170.071 10.2226 169.254 11.2159 168.206 11.9146C167.158 12.6132 165.926 12.9857 164.666 12.9849C162.979 12.9849 161.361 12.3159 160.167 11.1249C158.974 9.93382 158.303 8.3183 158.302 6.63344V6.63344Z" fill="#FFD98E"/>
<path d="M48.5303 173.739C48.5303 172.565 48.8789 171.418 49.5321 170.441C50.1853 169.465 51.1138 168.704 52.2 168.255C53.2863 167.806 54.4815 167.688 55.6347 167.917C56.7878 168.146 57.8471 168.712 58.6784 169.542C59.5098 170.372 60.076 171.43 60.3053 172.581C60.5347 173.733 60.417 174.926 59.9671 176.011C59.5171 177.095 58.7552 178.023 57.7776 178.675C56.8 179.327 55.6507 179.675 54.4749 179.675C52.8983 179.675 51.3863 179.05 50.2714 177.937C49.1566 176.823 48.5303 175.314 48.5303 173.739Z" stroke="#6BD5E1" stroke-width="3.11" stroke-linecap="round" stroke-linejoin="round"/>
<path d="M180.245 171.238C180.244 170.555 180.447 169.887 180.826 169.318C181.206 168.75 181.746 168.307 182.378 168.045C183.01 167.783 183.705 167.714 184.377 167.846C185.048 167.979 185.665 168.308 186.149 168.791C186.633 169.274 186.963 169.889 187.096 170.559C187.23 171.229 187.162 171.924 186.9 172.555C186.639 173.187 186.195 173.726 185.626 174.106C185.057 174.486 184.388 174.689 183.704 174.689C183.25 174.689 182.8 174.6 182.381 174.427C181.961 174.254 181.58 174 181.258 173.679C180.937 173.359 180.682 172.978 180.508 172.559C180.335 172.141 180.245 171.692 180.245 171.238V171.238Z" stroke="#FF8364" stroke-width="3.11" stroke-linecap="round" stroke-linejoin="round"/>
</g>
<defs>
<clipPath id="clip0">
<rect width="261" height="330" fill="white"/>
</clipPath>
</defs>
</svg>
