<svg width="46" height="46" viewBox="0 0 46 46" fill="none" xmlns="http://www.w3.org/2000/svg">
<path fill-rule="evenodd" clip-rule="evenodd" d="M1.56606e-05 23.0268C-0.00529358 18.4762 1.33946 14.0262 3.86409 10.24C6.38873 6.45388 9.97977 3.50174 14.1828 1.75721C18.3858 0.0126691 23.0118 -0.445854 27.4755 0.439661C31.9392 1.32518 36.0399 3.51493 39.2587 6.73181C42.4774 9.94869 44.6696 14.0481 45.5577 18.5113C46.4458 22.9745 45.99 27.6008 44.2479 31.8048C42.5059 36.0088 39.5558 39.6016 35.7711 42.1285C31.9864 44.6553 27.5373 46.0027 22.9866 46C16.8925 46 11.0478 43.58 6.73735 39.2721C2.42692 34.9642 0.00357322 29.1209 1.56606e-05 23.0268V23.0268Z" fill="#51DED6"/>
</svg>
