<svg width="26" height="25" viewBox="0 0 26 25" fill="none" xmlns="http://www.w3.org/2000/svg">
<path d="M2 12.5C2 10.4233 2.64516 8.39323 3.85386 6.66652C5.06255 4.9398 6.78051 3.59399 8.79049 2.79927C10.8005 2.00455 13.0122 1.79662 15.146 2.20176C17.2798 2.60691 19.2398 3.60694 20.7782 5.07539C22.3165 6.54384 23.3642 8.41476 23.7886 10.4516C24.2131 12.4884 23.9952 14.5996 23.1627 16.5182C22.3301 18.4368 20.9202 20.0767 19.1113 21.2304C17.3023 22.3842 15.1756 23 13 23C10.0826 23 7.28472 21.8938 5.22182 19.9246C3.15892 17.9555 2 15.2848 2 12.5Z" stroke="#51DED6" stroke-width="3.11" stroke-linecap="round" stroke-linejoin="round"/>
</svg>
