<svg width="62" height="62" viewBox="0 0 62 62" fill="none" xmlns="http://www.w3.org/2000/svg">
<path fill-rule="evenodd" clip-rule="evenodd" d="M2.11078e-05 31.0362C-0.00713483 24.9026 1.80535 18.9048 5.20812 13.8018C8.61089 8.69871 13.451 4.71974 19.1159 2.36841C24.7808 0.0170758 31.016 -0.600934 37.0323 0.592586C43.0485 1.78611 48.5756 4.73751 52.9139 9.0733C57.2522 13.4091 60.2069 18.9344 61.4039 24.95C62.6009 30.9656 61.9865 37.2011 59.6385 42.8674C57.2905 48.5337 53.3143 53.3761 48.2132 56.7818C43.1122 60.1876 37.1155 62.0036 30.9819 62C22.7682 62 14.8905 58.7383 9.08078 52.932C3.27106 47.1257 0.00481607 39.25 2.11078e-05 31.0362V31.0362Z" fill="#EC9B3B"/>
</svg>
