<svg width="32" height="31" viewBox="0 0 32 31" fill="none" xmlns="http://www.w3.org/2000/svg">
<path d="M2 15.5C2 12.8299 2.82111 10.2199 4.35945 7.99981C5.89779 5.77974 8.08428 4.04941 10.6424 3.02763C13.2006 2.00585 16.0155 1.73851 18.7313 2.25941C21.447 2.78031 23.9415 4.06606 25.8995 5.95407C27.8574 7.84208 29.1908 10.2475 29.731 12.8663C30.2712 15.485 29.9939 18.1994 28.9343 20.6662C27.8747 23.133 26.0803 25.2414 23.778 26.7248C21.4757 28.2082 18.7689 29 16 29C12.287 29 8.72601 27.5777 6.1005 25.0459C3.47499 22.5142 2 19.0804 2 15.5Z" stroke="#FF8364" stroke-width="3.11" stroke-linecap="round" stroke-linejoin="round"/>
</svg>
