<svg width="119" height="115" viewBox="0 0 119 115" fill="none" xmlns="http://www.w3.org/2000/svg">
<path d="M2 57.5C2 46.5231 5.37243 35.7928 11.6906 26.6659C18.0088 17.5389 26.989 10.4254 37.4957 6.2247C48.0025 2.02403 59.5638 0.924966 70.7177 3.06645C81.8716 5.20793 92.117 10.4938 100.159 18.2556C108.2 26.0174 113.677 35.9066 115.895 46.6725C118.114 57.4385 116.975 68.5976 112.623 78.7389C108.271 88.8802 100.901 97.5481 91.4453 103.647C81.9895 109.745 70.8724 113 59.5 113C44.2501 113 29.6247 107.153 18.8413 96.7444C8.05801 86.3362 2 72.2195 2 57.5Z" stroke="#FF8364" stroke-width="3.11" stroke-linecap="round" stroke-linejoin="round"/>
</svg>
